<svg fill="none" xmlns="http://www.w3.org/2000/svg" viewBox="0 0 20 20" className="h-6">
  <path d="M13.09 10a2.5 2.5 0 1 1-5 0 2.5 2.5 0 0 1 5 0Z" fill="#006ADC"></path>
  <path
    d="M10.59 18.25c3.1 0 5.8-1.71 7.21-4.24l1.6.71a10 10 0 1 1 0-9.44L17.8 6a8.25 8.25 0 1 0-7.21 12.25Z"
    fill="#333"
  ></path>
  <path
    fill-rule="evenodd"
    clip-rule="evenodd"
    d="M10.59 16.25a6.25 6.25 0 1 0 0-12.5 6.25 6.25 0 0 0 0 12.5Zm0-1.75a4.5 4.5 0 1 0 0-9 4.5 4.5 0 0 0 0 9Z"
    fill="#444"
  ></path>
</svg>

